<?xml version="1.0" encoding="utf-8"?>
<!-- Generator: Adobe Illustrator 23.1.0, SVG Export Plug-In . SVG Version: 6.00 Build 0)  -->
<svg version="1.1" id="Layer_1" xmlns="http://www.w3.org/2000/svg" xmlns:xlink="http://www.w3.org/1999/xlink" x="0px" y="0px"
	 viewBox="0 0 512 398.5" style="enable-background:new 0 0 512 398.5;" xml:space="preserve">
<style type="text/css">
	.st0{fill:#0D90D0;}
</style>
<g>
	<g>
		<path class="st0" d="M317.2,263.3h-29.5c-4.3,0-7.8,3.5-7.8,7.8s3.5,7.8,7.8,7.8h29.5c4.3,0,7.8-3.5,7.8-7.8
			S321.5,263.3,317.2,263.3z"/>
	</g>
</g>
<g>
	<g>
		<path class="st0" d="M100.9,321.4c-13.9,0-25.2,11.3-25.2,25.2s11.3,25.2,25.2,25.2s25.2-11.3,25.2-25.2S114.8,321.4,100.9,321.4z
			 M100.9,356.1c-5.2,0-9.5-4.3-9.5-9.5s4.3-9.5,9.5-9.5s9.5,4.3,9.5,9.5C110.4,351.8,106.1,356.1,100.9,356.1z"/>
	</g>
</g>
<g>
	<g>
		<path class="st0" d="M436.3,321.4c-13.9,0-25.2,11.3-25.2,25.2s11.3,25.2,25.2,25.2s25.2-11.3,25.2-25.2S450.1,321.4,436.3,321.4z
			 M436.3,356.1c-5.2,0-9.5-4.3-9.5-9.5s4.3-9.5,9.5-9.5s9.5,4.3,9.5,9.5C445.8,351.8,441.5,356.1,436.3,356.1z"/>
	</g>
</g>
<g>
	<g>
		<path class="st0" d="M511.4,298.5c-2-15.7-8.9-30.7-19.7-42.3c-10.3-11.1-23.9-18.9-38.7-22.3l-31.2-29.8
			c-19.5-18.6-45.1-28.9-72-28.9h-60.4c-33.5,0-67,7.9-97,22.8c-3.9,1.9-5.5,6.6-3.5,10.5c1.9,3.9,6.6,5.5,10.5,3.5
			c27.8-13.8,58.9-21.2,90-21.2h40l6.3,46.7L142,245.3l29.4-17.2c3.7-2.2,5-7,2.8-10.7c-2.2-3.7-7-5-10.7-2.8l-54.7,32.1l-27.6,1.2
			c-8.8,0.4-17.2,2.3-25,5.5c-0.2,0.1-0.4,0.1-0.6,0.2c-16.2,6.7-29.3,18.6-37.5,33.6c-1.7,3.2-3.3,6.5-4.5,9.9
			C11,303.8,9.1,311,7,317.9c-1.8,5.8-3.6,11.5-5.3,17.3c-0.2,0.6-0.4,1.2-0.6,1.9c-2.2,7.1-0.9,14.6,3.5,20.6s11.2,9.4,18.6,9.4h30
			c7.9,18.5,26.3,31.5,47.7,31.5s39.8-13,47.7-31.5c0,0,28.3,0,28.4,0h211.5c7.9,18.5,26.4,31.5,47.7,31.5c21.4,0,39.8-13,47.7-31.5
			h20.1c4.3,0,7.8-3.5,7.8-7.8v-51.2C512,304.8,511.8,301.6,511.4,298.5z M474.4,261.5c0.1,0.1,0.2,0.2,0.3,0.3
			c10,8.3,17.1,19.9,20,32.5c-11.5-2-20.3-12.1-20.3-24.2V261.5z M349.8,191L349.8,191c22.9,0,44.6,8.7,61.2,24.5l19.4,18.5l-79,3.1
			l-6.2-46.1H349.8z M29.5,299.4c0.3-0.8,0.7-1.5,1.1-2.3c0,0,0,0,0-0.1c4.7-9.6,11.9-17.7,20.7-23.5v2.2c0,12.7-9.7,23.2-22.1,24.5
			C29.3,299.9,29.4,299.6,29.5,299.4z M130.4,367.7c-3.7,5.2-8.8,9.3-14.5,12c-4.7,2.1-9.8,3.2-14.9,3.2c-7.9,0-15.6-2.6-21.9-7.4
			c-6.4-4.9-11.2-11.9-13.2-19.8c-0.8-3-1.2-6.1-1.2-9.1c0-20,16.3-36.2,36.2-36.2s36.2,16.3,36.2,36.3
			C137.1,354.1,134.7,361.6,130.4,367.7z M152.6,351.3L152.6,351.3c0.1-1.6,0.2-3.1,0.2-4.7c0-28.6-23.3-51.9-51.9-51.9
			S49,318,49,346.6c0,0,0,0,0,0c0,1.5,0.1,3.1,0.2,4.7H23.1c-2.4,0-4.6-1.1-6-3c-1.4-1.9-1.8-4.3-1.1-6.6l8-25.8
			c0.9,0.1,1.8,0.1,2.7,0.1c22.2,0,40.3-18.1,40.3-40.3v-9c0-0.2,0-0.4,0-0.6c4.8-1.5,9.8-2.4,15-2.6c0,0,29.5-1.3,29.5-1.3
			l45.8-1.8c-2.9,18.6-7,59.3,6.8,90.9L152.6,351.3L152.6,351.3z M279.9,351.3h-98.5c-16.7-29.7-11-75.4-8.2-91.6l164.2-6.4
			c0.9,16.2,0.9,56.3-18.8,79.8C309.1,344.6,296.4,350.5,279.9,351.3z M472.4,349c-1.3,18.7-17.3,33.9-36.2,33.9
			c-19.6,0-36.2-16.7-36.2-36.2c0-20,16.3-36.2,36.2-36.2s36.2,16.3,36.2,36.2C472.5,347.4,472.5,348.2,472.4,349z M496.3,351.3H488
			c2.6-28.9-20.1-55.1-49-56.6c-0.9,0-1.8-0.1-2.7-0.1c-28.6,0-51.9,23.3-51.9,51.9c0,1.6,0.1,3.1,0.2,4.7h-61.9
			c2.8-2.4,5.5-5.1,8-8c23.3-27.8,23.6-72,22.5-90.5l95.4-3.7c3.9,0.8,7.6,2,11.1,3.5c-0.6,2.8-0.9,5.6-0.9,8.5v9
			c0,21.3,16.6,38.8,37.6,40.2L496.3,351.3L496.3,351.3z"/>
	</g>
</g>
<g>
	<g>
		<path class="st0" d="M297.9,38.4c-3.1-3.1-8-3.1-11.1,0l-56.4,56.4l-6.8-17.7c-1.6-4-6.1-6-10.1-4.5c-4,1.6-6,6.1-4.5,10.1
			l11.2,28.9c1,2.5,3.1,4.3,5.7,4.8c0.5,0.1,1.1,0.2,1.6,0.2c2.1,0,4.1-0.8,5.5-2.3l64.9-64.9C301,46.5,301,41.5,297.9,38.4z"/>
	</g>
</g>
<g>
	<g>
		<path class="st0" d="M254.3,0c-42.1,0-76.4,34.3-76.4,76.4c0,42.1,34.3,76.4,76.4,76.4s76.4-34.3,76.4-76.4
			C330.8,34.3,296.5,0,254.3,0z M254.3,137.2c-33.5,0-60.7-27.3-60.7-60.7s27.3-60.7,60.7-60.7s60.7,27.3,60.7,60.7
			C315.1,109.9,287.8,137.2,254.3,137.2z"/>
	</g>
</g>
</svg>
