<?xml version="1.0" encoding="utf-8"?>
<!-- Generator: Adobe Illustrator 23.1.0, SVG Export Plug-In . SVG Version: 6.00 Build 0)  -->
<svg version="1.1" id="Layer_5" xmlns="http://www.w3.org/2000/svg" xmlns:xlink="http://www.w3.org/1999/xlink" x="0px" y="0px"
	 viewBox="0 0 496 496" style="enable-background:new 0 0 496 496;" xml:space="preserve">
<style type="text/css">
	.st0{fill:#0D90D0;}
</style>
<path class="st0" d="M232,384c-22.1,0-40,17.9-40,40s17.9,40,40,40s40-17.9,40-40S254.1,384,232,384z M232,448
	c-13.2,0-24-10.8-24-24s10.8-24,24-24s24,10.8,24,24S245.2,448,232,448z"/>
<path class="st0" d="M496,128H376.4c-27.8,0-54.3,13.4-70.8,35.8l-86,116.7l-47.2,6.3c-25.1,3.4-46.6,17.3-60.4,36.9V131.8
	c19.8-13.3,32-35.8,32-59.8c0-26-13.8-50.1-36-62.9l-9.7-5.6l-9.5,47.7L72,62.4L55.2,51.2L45.7,3.5L36,9.1C13.8,21.9,0,46,0,72
	c0,24,12.2,46.5,32,59.8v201c-19.8,13.3-32,35.8-32,59.8c0,26,13.8,50.1,36,62.9l9.7,5.6l9.5-47.7L72,402.2l12.2,8.2
	C81.6,414.3,80,419,80,424v16c0,13.2,10.8,24,24,24h68.2c12.9,19.3,34.9,32,59.8,32s46.9-12.7,59.8-32H496L496,128z M228.4,295.5
	l90-122.2c13.5-18.3,35.2-29.3,58-29.3H480v16h-99.7c-15.2,0-29.7,7.3-38.7,19.6l-41,56C279.2,243.5,264,264,264,288v8v63.6
	c-9.7-4.8-20.5-7.6-32-7.6c-31.3,0-57.9,20.1-67.8,48H112v-24v-2c0-4.1,0.4-8.2,1.1-12.1c7,3.9,14.8,6.1,22.9,6.1
	c26.5,0,48-21.5,48-48c0-6.3-1.4-12.4-3.8-18.1L228.4,295.5z M320,248h8c8.8,0,16,7.2,16,16s-7.2,16-16,16h-16h-31.2
	C284.5,261.8,300.7,248,320,248L320,248z M328,232h-5l31.5-42.9c6-8.2,15.7-13.1,25.8-13.1H480v104H355.6c2.8-4.7,4.4-10.1,4.4-16
	C360,246.4,345.6,232,328,232L328,232z M164.1,304.9c2.6,4.7,3.9,9.8,3.9,15.1c0,17.6-14.4,32-32,32c-6.6,0-12.9-2.1-18.3-5.9
	C126.1,326.4,143,311,164.1,304.9L164.1,304.9z M40.8,403.8l-6.2,31C22.9,424.2,16,408.9,16,392.6c0-19.9,10.7-38.4,28-48.4l4-2.3
	V122.8l-4-2.3c-17.3-10-28-28.6-28-48.4c0-16.3,6.9-31.6,18.6-42.2l6.2,31L72,81.6l31.2-20.8l6.2-31C121.1,40.4,128,55.7,128,72
	c0,19.9-10.7,38.4-28,48.4l-4,2.3V374v2v23l-24-16L40.8,403.8z M104,448c-4.4,0-8-3.6-8-8v-16c0-4.4,3.6-8,8-8h56.5
	c-0.3,2.6-0.5,5.3-0.5,8c0,8.4,1.5,16.5,4.2,24H104z M232,480c-30.9,0-56-25.1-56-56s25.1-56,56-56s56,25.1,56,56S262.9,480,232,480
	z M299.8,448c2.7-7.5,4.2-15.6,4.2-24c0-21.2-9.3-40.3-24-53.5V296h32h16h152v152H299.8z"/>
<path class="st0" d="M400,336c0,13.2,10.8,24,24,24h16c13.2,0,24-10.8,24-24v-24h-64V336z M416,328h32v8c0,4.4-3.6,8-8,8h-16
	c-4.4,0-8-3.6-8-8V328z"/>
<path class="st0" d="M200,128h20.7l34.3,34.3c3.6,3.6,8.6,5.7,13.7,5.7c10.6,0,19.3-8.7,19.3-19.3V128h24c22.1,0,40-17.9,40-40V40
	c0-22.1-17.9-40-40-40H200c-22.1,0-40,17.9-40,40v48C160,110.1,177.9,128,200,128z M176,40c0-13.2,10.8-24,24-24h112
	c13.2,0,24,10.8,24,24v48c0,13.2-10.8,24-24,24h-40v36.7c0,2.7-3.8,4.3-5.7,2.3l-39-39H200c-13.2,0-24-10.8-24-24V40z"/>
<path class="st0" d="M309.7,37.7l-11.3-11.3L240,84.7l-18.3-18.3l-11.3,11.3l29.7,29.7L309.7,37.7z"/>
<path class="st0" d="M64,120h16v16H64V120z"/>
<path class="st0" d="M64,152h16v16H64V152z"/>
<path class="st0" d="M64,184h16v16H64V184z"/>
<path class="st0" d="M320,416h16v16h-16V416z"/>
<path class="st0" d="M352,416h16v16h-16V416z"/>
<path class="st0" d="M384,416h16v16h-16V416z"/>
</svg>
