<?xml version="1.0" encoding="utf-8"?>
<!-- Generator: Adobe Illustrator 23.1.0, SVG Export Plug-In . SVG Version: 6.00 Build 0)  -->
<svg version="1.1" id="Layer_1" xmlns="http://www.w3.org/2000/svg" xmlns:xlink="http://www.w3.org/1999/xlink" x="0px" y="0px"
	 viewBox="0 0 469.3 512" style="enable-background:new 0 0 469.3 512;" xml:space="preserve">
<style type="text/css">
	.st0{fill:#0D90D0;}
</style>
<g transform="translate(1 1)">
	<g>
		<g>
			<path class="st0" d="M460.7,318.1l-23.9-23.9c-3.1-3.1-6.9-5.1-11.1-6.2V41.7c0-14.5-11.1-25.6-25.6-25.6H289.1
				c0-9.4-7.7-17.1-17.1-17.1H152.6c-9.4,0-17.1,7.7-17.1,17.1H24.6C10.1,16.1-1,27.2-1,41.7v443.7c0,14.5,11.1,25.6,25.6,25.6H255
				c3.4,0,6.8-2.6,8.5-6l0.4-1.3l65.3-17.5L460.7,354C470.9,344.6,470.9,328.4,460.7,318.1z M289,430l87-87l35.8,35.8l-87,87
				L289,430z M152.6,84.3h119.5c9.4,0,17.1-7.7,17.1-17.1h85.3v252.6L270.4,424c-0.9,0.9-1.7,1.7-1.7,3.4l-9.6,32.4H50.2V67.3h85.3
				C135.5,76.7,143.2,84.3,152.6,84.3z M399.2,33.1c5.1,0,8.5,3.4,8.5,8.5v247.5c-2.6,0.9-5.1,2.6-7.7,5.1l-8.5,8.5V67.3
				c0-9.4-7.7-17.1-17.1-17.1h-85.3V33.1H399.2z M152.6,16.1h119.5v8.5v34.1v8.5H152.6v-8.5V24.6V16.1z M16.1,485.4V41.7
				c0-5.1,3.4-8.5,8.5-8.5h110.9v17.1H50.2c-9.4,0-17.1,7.7-17.1,17.1v392.5c0,9.4,7.7,17.1,17.1,17.1h203.9l-5,17.1H24.6
				C19.5,493.9,16.1,490.5,16.1,485.4z M281.4,446.6l26.9,26.9l-37.1,10.2L281.4,446.6z M448.7,342L424,366.8l-35.8-35.8l0.8-0.8
				l23.9-23.9c3.4-3.4,8.5-3.4,11.9,0l23.9,23.9C452.1,333.5,452.1,338.6,448.7,342z"/>
			<path class="st0" d="M98,177.3c-12.8,0-22.2,10.2-22.2,22.2v33.3c0,12.8,9.4,22.2,22.2,22.2h13c3.8,14.7,17.2,25.6,33,25.6
				c15.8,0,29.2-10.9,33-25.6h70.4c3.8,14.7,17.2,25.6,33,25.6c15.8,0,29.2-10.9,33-25.6h13c12.8,0,22.2-9.4,23-22.2v-33.3
				c0-12.8-10.2-22.2-22.2-22.2h-18.2l-33-46.1c-5.1-7.7-13.7-11.9-23-11.9h-36.9c-1.2-0.6-2.5-0.9-4-0.9s-2.9,0.3-4,0.9h-36.9
				c-9.4,0-17.9,4.3-23,11.9l-33,46.1L98,177.3L98,177.3z M144.1,263.5c-9.4,0-17.1-7.7-17.1-17.1s7.7-17.1,17.1-17.1
				c9.4,0,17.1,7.7,17.1,17.1S153.5,263.5,144.1,263.5z M280.6,263.5c-9.4,0-17.1-7.7-17.1-17.1s7.7-17.1,17.1-17.1
				s17.1,7.7,17.1,17.1S290,263.5,280.6,263.5z M332.7,199.5v33.3c0,2.6-2.6,5.1-5.1,5.1h-13.7c-4.3-14.5-15.4-25.6-31.6-25.6
				c-0.3,0-0.6,0-0.9,0c-0.3,0-0.5,0-0.8,0c-15.8,0-29.2,10.9-33,25.6h-69.4c-4.3-14.5-17.1-25.6-33.3-25.6c-0.2,0-0.3,0-0.5,0
				c-0.1,0-0.3,0-0.4,0c-15.8,0-29.2,10.9-33,25.6H98c-2.6,0-5.1-2.6-5.1-5.1v-33.3c0-2.6,2.6-5.1,5.1-5.1h16.6
				c1.1,0.5,2.4,0.9,3.8,0.9h187.7c1.4,0,2.7-0.3,3.8-0.9h17.5C330.1,194.4,332.7,197,332.7,199.5z M261.8,139.8l26.7,37.5h-67.7
				v-41.8h31.6C256.7,135.5,260.1,137.2,261.8,139.8z M161.1,139.8c2.6-2.6,6-4.3,9.4-4.3h33.3v41.8h-68.5L161.1,139.8z"/>
			<path class="st0" d="M212.3,323.3h-128c-5.1,0-8.5,3.4-8.5,8.5s3.4,8.5,8.5,8.5h128c5.1,0,8.5-3.4,8.5-8.5
				C220.9,326.7,217.5,323.3,212.3,323.3z"/>
			<path class="st0" d="M212.3,365.9h-128c-5.1,0-8.5,3.4-8.5,8.5s3.4,8.5,8.5,8.5h128c5.1,0,8.5-3.4,8.5-8.5
				S217.5,365.9,212.3,365.9z"/>
			<path class="st0" d="M212.3,408.6h-128c-5.1,0-8.5,3.4-8.5,8.5s3.4,8.5,8.5,8.5h128c5.1,0,8.5-3.4,8.5-8.5
				S217.5,408.6,212.3,408.6z"/>
		</g>
	</g>
</g>
</svg>
