<?xml version="1.0" encoding="utf-8"?>
<!-- Generator: Adobe Illustrator 23.1.0, SVG Export Plug-In . SVG Version: 6.00 Build 0)  -->
<svg version="1.1" id="All__work" xmlns="http://www.w3.org/2000/svg" xmlns:xlink="http://www.w3.org/1999/xlink" x="0px" y="0px"
	 viewBox="0 0 235.3 233.4" style="enable-background:new 0 0 235.3 233.4;" xml:space="preserve">
<style type="text/css">
	.st0{fill:#0D90D0;stroke:#0D0E0E;stroke-width:5;stroke-miterlimit:10;}
</style>
<g>
	<path class="st0" d="M183.4,105.7c-3.3-0.9-6.6,1.1-7.5,4.4c-0.2,0.8-0.5,1.6-0.7,2.4c-1.1,3.2,0.7,6.7,3.9,7.7
		c0.6,0.2,1.3,0.3,1.9,0.3c2.6,0,5-1.6,5.8-4.2c0.3-1,0.7-2.1,0.9-3.2C188.6,109.9,186.7,106.6,183.4,105.7z"/>
	<path class="st0" d="M232.8,106.3L232,85.5c-0.1-2.3-1.4-4.3-3.5-5.3l-16.5-8c-1.6-4.4-3.5-8.7-5.9-12.8l4.7-17.7
		c0.6-2.2-0.1-4.5-1.8-6.1l-15.3-14.1c-1.7-1.5-4-2-6.2-1.3l-17.3,6.1c-4.2-2-8.7-3.6-13.2-4.9L148,5.6c-1.1-2-3.3-3.1-5.5-3
		l-20.8,0.8c-2.3,0.1-4.3,1.4-5.3,3.5l-8,16.5c-4.4,1.6-8.7,3.5-12.8,5.9l-17.7-4.7c-2.2-0.6-4.5,0.1-6.1,1.8L57.7,41.5
		c-1.5,1.7-2,4-1.3,6.2c2,5.8,4,11.5,6.1,17.3c-1,2.1-1.9,4.3-2.8,6.6H8.6c-3.4,0-6.1,2.7-6.1,6.1v88c0,13.2,0,20.4,2.3,25.8
		c2.6,6.1,7.8,8.2,12.4,9c2.6,17.3,17.6,30.5,35.5,30.5c17.7,0,32.5-12.9,35.4-29.8h20.8c3.4,0,6.1-2.7,6.1-6.1
		c0-3.4-2.7-6.1-6.1-6.1H88.1C85.2,171.9,70.4,159,52.7,159c-17.4,0-31.9,12.4-35.2,28.8c-1-0.4-1.2-0.8-1.4-1.2
		c-1.3-3-1.3-10.5-1.3-21V83.8h54.7v42.9H55.9c-3.4,0-6.1,2.7-6.1,6.1c0,3.4,2.7,6.1,6.1,6.1h133c13.7,0,19.3,7.8,19.3,26.8
		c0,14.9-0.8,20.4-7.9,21.9c-3.4-16.3-17.9-28.6-35.2-28.6c-19.8,0-35.9,16.1-35.9,35.9c0,19.8,16.1,35.9,35.9,35.9
		c18.2,0,33.2-13.5,35.6-31.1c8-1.2,13.6-5.1,16.7-11.6c3-6.4,3-14.3,3-22.6c0-11.2-1.7-19.3-5.4-25.6c-1.5-2.6-3.4-4.8-5.5-6.7
		c1.8-4,3.3-8.1,4.5-12.4l15.9-9.2C231.7,110.7,232.9,108.5,232.8,106.3z M52.7,171.3c13.1,0,23.7,10.6,23.7,23.7
		c0,13.1-10.6,23.7-23.7,23.7S28.9,208.1,28.9,195C28.9,181.9,39.6,171.3,52.7,171.3z M165.1,218.7c-13.1,0-23.7-10.6-23.7-23.7
		c0-13.1,10.6-23.7,23.7-23.7c13.1,0,23.7,10.6,23.7,23.7C188.8,208.1,178.1,218.7,165.1,218.7z M81.7,83.8h19.8
		c13.3,0,25.8,13.5,34,24.9c4.7,6.5,8.5,13,11.2,18H81.7V83.8z M205.5,111.7c-1.5,0.8-2.5,2.2-2.9,3.9c-1,4.2-2.4,8.3-4.2,12.2
		c-2.9-0.8-6.1-1.1-9.6-1.1h-28.4c-2.5-5.2-7.7-15-14.9-25c-13.3-18.4-26.9-28.5-40.6-29.9c0.1-0.1,0.2-0.3,0.3-0.4
		c15.6-16.8,41.9-17.8,58.7-2.2c7,6.5,11.5,14.9,12.9,24.4c0.4,3,3.1,5.2,6,5.2c0.3,0,0.6,0,0.9-0.1c3.3-0.5,5.7-3.6,5.2-6.9
		c-1.8-12.1-7.7-23.3-16.7-31.6c-21.8-20.1-55.8-18.8-76,2.9c-2.4,2.6-4.6,5.5-6.4,8.5H72.9c0.5-1.1,1-2.3,1.6-3.4
		c0.8-1.5,0.9-3.2,0.3-4.8c-1.9-5.4-3.8-10.8-5.7-16.3l9.1-9.9l16.6,4.4c1.6,0.4,3.3,0.2,4.8-0.7c4.7-2.9,9.7-5.2,14.9-6.9
		c1.6-0.5,2.9-1.7,3.6-3.2l7.5-15.5l13.4-0.5l8.6,14.9c0.8,1.5,2.2,2.5,3.9,2.9c5.4,1.3,10.5,3.2,15.4,5.7c1.5,0.8,3.2,0.9,4.8,0.3
		l16.3-5.7l9.9,9.1l-4.4,16.6c-0.4,1.6-0.2,3.3,0.7,4.8c2.9,4.7,5.2,9.7,6.9,14.9c0.5,1.6,1.7,2.9,3.2,3.6l15.5,7.5l0.5,13.4
		L205.5,111.7z"/>
	<path class="st0" d="M52.7,210.1c8.4,0,15.2-6.8,15.2-15.2c0-8.4-6.8-15.2-15.2-15.2c-8.4,0-15.2,6.8-15.2,15.2
		C37.5,203.3,44.3,210.1,52.7,210.1z M52.7,192.1c1.6,0,2.9,1.3,2.9,2.9c0,1.6-1.3,2.9-2.9,2.9c-1.6,0-2.9-1.3-2.9-2.9
		C49.7,193.4,51,192.1,52.7,192.1z"/>
	<path class="st0" d="M165.1,179.8c-8.4,0-15.2,6.8-15.2,15.2c0,8.4,6.8,15.2,15.2,15.2c8.4,0,15.2-6.8,15.2-15.2
		C180.2,186.6,173.4,179.8,165.1,179.8z M165.1,197.9c-1.6,0-2.9-1.3-2.9-2.9c0-1.6,1.3-2.9,2.9-2.9c1.6,0,2.9,1.3,2.9,2.9
		C168,196.6,166.7,197.9,165.1,197.9z"/>
	<path class="st0" d="M34,126.7c-3.4,0-6.1,2.7-6.1,6.1c0,3.4,2.7,6.1,6.1,6.1h2.8c3.4,0,6.1-2.7,6.1-6.1c0-3.4-2.7-6.1-6.1-6.1H34z
		"/>
</g>
</svg>
