<?xml version="1.0" encoding="utf-8"?>
<!-- Generator: Adobe Illustrator 23.1.0, SVG Export Plug-In . SVG Version: 6.00 Build 0)  -->
<svg version="1.1" id="Layer_1" xmlns="http://www.w3.org/2000/svg" xmlns:xlink="http://www.w3.org/1999/xlink" x="0px" y="0px"
	 viewBox="0 0 295.2 295.2" style="enable-background:new 0 0 295.2 295.2;" xml:space="preserve">
<style type="text/css">
	.st0{fill:#0D90D0;}
</style>
<g>
	<g>
		<g>
			<path class="st0" d="M280.6,252.4h0.4v-28.6c0-0.6-0.1-15.2-5.1-30.4l-15.5-36.2h-12.7H235l-15.7,36.6c-4.9,14.8-5,29.5-5,30.1
				v9.5H200c-7.9,0-14.3-6.4-14.3-14.3v-19.8c22.7-13.2,38.1-37.8,38.1-65.9v-0.7c8.2-2.1,14.3-9.5,14.3-18.4c0-8.6-3.2-14-5-16.3
				c0.2-0.9,0.3-1.8,0.3-2.7v-9.5c0-47.3-38.5-85.7-85.7-85.7S61.9,38.5,61.9,85.7v9.5c0,0.9,0.1,1.8,0.3,2.7c-1.8,2.4-5,7.8-5,16.3
				c0,8.9,6.1,16.2,14.3,18.4v0.7c0,28.1,15.4,52.7,38.1,65.9V219c0,7.9-6.4,14.3-14.3,14.3H71.4v-6.7c9.4-5.7,14.3-14.8,14.3-26.6
				c0-11.6-7.8-25.1-22.8-28.5l-5.8-1.3v25h-9.5v-25l-5.8,1.3C26.9,174.9,19,188.4,19,200c0,11.8,4.9,20.9,14.3,26.6v12
				C13.7,247.6,0,267.5,0,290.5v4.8h9.5v-4.8c0-24.6,18.8-45,42.9-47.4v52.1h9.5v-52.4h14.3v52.4h9.5v-52.4h9.5
				c1.9,0,3.8-0.3,5.6-0.7c4.1,22.1,23.5,38.8,46.8,38.8s42.6-16.8,46.8-38.8c1.8,0.4,3.7,0.7,5.6,0.7h9.5v52.4h9.5v-52.4h14.3v52.4
				h9.5v-52.1c24,2.4,42.9,22.7,42.9,47.4v4.8h9.5v-4.8C295.2,275.8,289.7,262.5,280.6,252.4z M64.5,219.5l-2.6,1.3v12.5h-4.8
				c-4.9,0-9.7,0.7-14.3,1.9v-14.4l-2.6-1.3c-7.8-3.9-11.6-10.3-11.6-19.5c0-6.1,3.3-13,9.5-16.8v21.6h28.6v-21.6
				c6.3,3.8,9.5,10.7,9.5,16.8C76.2,209.3,72.4,215.7,64.5,219.5z M223.8,110.2c1.3-0.9,2.5-1.8,3.6-2.8c0.6,1.7,1.1,4,1.1,6.8
				c0,3.5-1.9,6.5-4.8,8.2V110.2z M142.9,9.8v33.1h9.5V9.8c39,2.4,70,34.2,71.3,73.4c-16.9-9-52.5-11.8-76.1-11.8
				s-59.1,2.7-76.1,11.8C72.8,44,103.9,12.2,142.9,9.8z M71.4,122.5c-2.8-1.6-4.8-4.7-4.8-8.2c0-2.9,0.5-5.1,1.1-6.8
				c1.1,1,2.3,1.9,3.6,2.8V122.5z M71.4,95.3c0.9-4.9,28.6-14.3,76.2-14.3c47.6,0,75.3,9.5,76.2,14.3c0,9.4-28.5,19-76.2,19
				C100,114.3,71.5,104.6,71.4,95.3z M81,133.3v-18.4c21,8,53.5,8.9,66.7,8.9s45.7-0.9,66.7-8.9v18.4c0,36.8-29.9,66.7-66.7,66.7
				S81,170.1,81,133.3z M147.6,271.4c-19.5,0-35.6-14.8-37.8-33.7c5.6-4.4,9.2-11.1,9.2-18.7v-15.1c8.8,3.6,18.5,5.6,28.6,5.6
				s19.7-2,28.6-5.6V219c0,7.6,3.7,14.3,9.2,18.7C183.2,256.7,167.1,271.4,147.6,271.4z M237,233.3h-13.2v-9.5
				c0-0.1,0.1-13.7,4.4-26.7l13-30.4h1.6v43.7c-5.5,2-9.5,7.2-9.5,13.4C233.3,227.5,234.8,230.8,237,233.3z M247.6,228.6
				c-2.6,0-4.8-2.1-4.8-4.8s2.1-4.8,4.8-4.8s4.8,2.1,4.8,4.8C252.4,226.4,250.2,228.6,247.6,228.6z M271.4,244.2
				c-4.9-3.6-10.4-6.4-16.3-8.2c4.1-2.5,6.8-7,6.8-12.1c0-6.2-4-11.4-9.5-13.4v-43.7h1.6l12.9,30.1c4.4,13.3,4.5,26.9,4.5,27.1
				L271.4,244.2L271.4,244.2z"/>
			<polygon class="st0" points="152.4,138.1 195.2,138.1 195.2,128.6 142.9,128.6 142.9,176.2 152.4,176.2 			"/>
			<rect x="85.7" y="61.9" class="st0" width="9.5" height="9.5"/>
			<rect x="104.8" y="57.1" class="st0" width="9.5" height="9.5"/>
		</g>
	</g>
</g>
</svg>
