<?xml version="1.0" encoding="utf-8"?>
<!-- Generator: Adobe Illustrator 23.1.0, SVG Export Plug-In . SVG Version: 6.00 Build 0)  -->
<svg version="1.1" id="Capa_1" xmlns="http://www.w3.org/2000/svg" xmlns:xlink="http://www.w3.org/1999/xlink" x="0px" y="0px"
	 viewBox="0 0 321 481.5" style="enable-background:new 0 0 321 481.5;" xml:space="preserve">
<style type="text/css">
	.st0{fill:#DADADA;}
</style>
<g>
	<path class="st0" d="M310.6,216.6L196.5,459.2c-6.6,13.8-21,22.3-36.1,22.3c-15,0-29.5-8.5-35.7-22.3L10.3,216.6
		C2.2,199.4,0,179.6,0,160.5C0,71.8,71.8,0,160.5,0S321,71.8,321,160.5C321,179.6,318.8,199.4,310.6,216.6z M160.5,80.2
		c-44.2,0-80.2,36-80.2,80.2s36.1,80.2,80.2,80.2s80.2-36,80.2-80.2S204.7,80.2,160.5,80.2z"/>
</g>
</svg>
