<?xml version="1.0" encoding="utf-8"?>
<!-- Generator: Adobe Illustrator 23.1.0, SVG Export Plug-In . SVG Version: 6.00 Build 0)  -->
<svg version="1.1" id="Режим_изоляции"
	 xmlns="http://www.w3.org/2000/svg" xmlns:xlink="http://www.w3.org/1999/xlink" x="0px" y="0px" viewBox="0 0 48 44"
	 style="enable-background:new 0 0 48 44;" xml:space="preserve">
<style type="text/css">
	.st0{fill:#0D90D0;}
</style>
<g>
	<path class="st0" d="M35.5,9.9c-0.3-0.3-0.7-0.3-1,0L19,25.4c-0.3,0.3-0.3,0.7,0,1c0.1,0.1,0.3,0.2,0.5,0.2c0.2,0,0.4-0.1,0.5-0.2
		l15.5-15.5C35.8,10.7,35.8,10.2,35.5,9.9z"/>
	<path class="st0" d="M22.3,15.2c-0.3,0-0.6-0.1-0.8-0.2c-0.4-0.2-0.8,0-1,0.4c-0.2,0.4,0,0.8,0.4,1c0.4,0.2,0.9,0.3,1.4,0.3
		c1.9,0,3.5-1.6,3.5-3.5c0-1.9-1.6-3.5-3.5-3.5c-1.9,0-3.5,1.6-3.5,3.5c0,0.4,0.3,0.7,0.7,0.7s0.7-0.3,0.7-0.7c0-1.1,0.9-2,2-2
		s2,0.9,2,2C24.3,14.3,23.4,15.2,22.3,15.2z"/>
	<path class="st0" d="M32.3,19.7c-1.9,0-3.5,1.6-3.5,3.5c0,1.9,1.6,3.5,3.5,3.5s3.5-1.6,3.5-3.5C35.8,21.2,34.2,19.7,32.3,19.7z
		 M32.3,25.2c-1.1,0-2-0.9-2-2c0-1.1,0.9-2,2-2c1.1,0,2,0.9,2,2C34.3,24.3,33.4,25.2,32.3,25.2z"/>
	<path class="st0" d="M42.6,13.2c0.5,0.3,0.9,0.7,1,1.3c0.1,0.6,0,1.2-0.4,1.6c-1,1.2-1,3,0,4.2c0.4,0.5,0.5,1.1,0.4,1.6
		c-0.1,0.6-0.5,1-1,1.3c-0.9,0.4-1.5,1.2-1.8,2.1c-0.1,0.4,0.1,0.8,0.5,0.9c0.1,0,0.1,0,0.2,0c0.3,0,0.6-0.2,0.7-0.5
		c0.2-0.5,0.5-1,1-1.2c0.9-0.5,1.6-1.3,1.8-2.3c0.2-1,0-2-0.6-2.9c-0.6-0.7-0.6-1.7,0-2.4c0.6-0.8,0.9-1.8,0.6-2.9
		c-0.2-1-0.9-1.8-1.8-2.3c-0.4-0.2-0.8,0-1,0.3C42,12.5,42.2,13,42.6,13.2z"/>
	<path class="st0" d="M25.8,2.2c0.7-0.9,2.3-0.9,3,0c1,1.2,2.7,1.6,4.1,0.9c0.5-0.3,1.1-0.2,1.7,0c0.5,0.3,0.9,0.7,1,1.3
		C35.9,5.9,37.3,7,38.9,7c0.6,0,1.1,0.3,1.5,0.7c0.4,0.5,0.5,1.1,0.4,1.6c-0.1,0.4,0.2,0.8,0.6,0.9c0.1,0,0.1,0,0.2,0
		c0.3,0,0.6-0.2,0.7-0.6c0.2-1,0-2-0.7-2.8c-0.6-0.8-1.6-1.3-2.6-1.3C38,5.6,37.2,5,37,4.1c-0.2-1-0.9-1.8-1.8-2.3
		c-0.9-0.4-2-0.5-2.9,0c-0.8,0.4-1.8,0.2-2.3-0.5C29.3,0.5,28.3,0,27.3,0c-1,0-2,0.5-2.6,1.3c-0.3,0.3-0.2,0.8,0.1,1
		C25.1,2.5,25.5,2.5,25.8,2.2z"/>
	<path class="st0" d="M9.5,22.2c0.2,1,0.9,1.8,1.8,2.3c0.1,0.1,0.2,0.1,0.3,0.1c0.3,0,0.5-0.1,0.7-0.4c0.2-0.4,0-0.8-0.3-1
		c-0.5-0.3-0.9-0.7-1-1.3c-0.1-0.6,0-1.2,0.4-1.6c1-1.2,1-3,0-4.2C11,15.6,10.8,15,11,14.5c0.1-0.6,0.5-1,1-1.3
		c1.4-0.7,2.2-2.2,1.8-3.8c-0.1-0.6,0-1.2,0.4-1.6C14.6,7.3,15.1,7,15.7,7c1.6,0,2.9-1.1,3.3-2.6c0.1-0.6,0.5-1,1-1.3
		c0.5-0.3,1.1-0.3,1.7,0c0.4,0.2,0.8,0,1-0.3c0.2-0.4,0-0.8-0.3-1c-0.9-0.4-2-0.4-2.9,0c-0.9,0.4-1.6,1.3-1.8,2.3
		c-0.2,0.9-1,1.5-1.9,1.5c-1,0-2,0.5-2.6,1.3c-0.6,0.8-0.9,1.8-0.7,2.8c0.2,0.9-0.2,1.8-1,2.2c-0.9,0.5-1.6,1.3-1.8,2.3
		c-0.2,1,0,2,0.6,2.9c0.6,0.7,0.6,1.7,0,2.4C9.5,20.2,9.3,21.2,9.5,22.2z"/>
	<path class="st0" d="M47.1,31.8c-0.5-0.4-1-0.5-1.6-0.4c0-0.6-0.2-1.3-0.6-1.7c-0.5-0.7-1.3-1-2.2-1c-1,0-2.2,0.5-3.8,1.1
		c-1.5,0.6-3.4,1.3-5.8,1.9c-1-1-2.4-0.9-2.4-0.9c-6.6,0.1-7.7-0.6-9-1.4l-0.4-0.2c-0.3-0.2-0.8-0.1-1,0.3c-0.2,0.3-0.1,0.8,0.3,1
		l0.4,0.2c1.5,0.9,2.8,1.6,9.8,1.6c0,0,0.8,0,1.4,0.5c0.4,0.4,0.6,1,0.5,1.9c0,0.2-0.1,0.9-1.4,1.4c-1.3,0.5-4.3,1-10.8,0.1
		c-0.4-0.1-0.8,0.2-0.8,0.6c-0.1,0.4,0.2,0.8,0.6,0.8c2.5,0.3,4.7,0.5,6.6,0.5c2.1,0,3.7-0.2,4.9-0.7c5.3-1,9-2.5,11.3-3.5
		c1.5-0.6,2.9-1.2,3.2-0.9c0.4,0.3,0.4,0.5,0.4,0.7c0,0.6-0.8,1.3-1.2,1.5c-1.5,1.2-3.1,2.2-4.7,3.1c-0.4,0.2-0.5,0.6-0.3,1
		c0.1,0.2,0.4,0.4,0.6,0.4c0.1,0,0.2,0,0.3-0.1c1.7-0.9,3.4-2,4.9-3.2c0.2-0.1,1.7-1.2,1.8-2.6C48,33.2,47.9,32.4,47.1,31.8z
		 M42.4,32.5c-1.9,0.8-4.7,2-8.5,2.9c0.1-0.2,0.1-0.5,0.1-0.7c0-0.7,0-1.3-0.2-1.8c2.2-0.6,4-1.2,5.5-1.8c1.4-0.5,2.5-1,3.3-1
		c0.5,0,0.8,0.1,1.1,0.5c0.2,0.3,0.4,0.7,0.3,1.2C43.6,32,43,32.2,42.4,32.5z"/>
	<path class="st0" d="M36.6,40c-11.2,4.3-22.7,2-27.2,0.8c-0.9-0.2-1.5-1.1-1.5-2l0-8.1c0-0.6,0.2-1.1,0.6-1.5
		c0.4-0.4,0.9-0.6,1.5-0.6c2.4,0.1,4.4,0.2,5.9,0.4c0.4,0,0.8-0.2,0.8-0.6c0.1-0.4-0.2-0.8-0.6-0.8c-1.6-0.2-3.6-0.3-6.1-0.4
		c-0.9,0-1.8,0.3-2.5,1c-0.4-0.6-1-1-1.7-1H2.1c-1.1,0-2.1,0.9-2.1,2.1v5.8c0,0.4,0.3,0.7,0.7,0.7c0.4,0,0.7-0.3,0.7-0.7v-5.8
		c0-0.3,0.3-0.6,0.6-0.6h3.8c0.3,0,0.6,0.3,0.6,0.6v11c0,0.3-0.3,0.6-0.6,0.6H2.1c-0.3,0-0.6-0.3-0.6-0.6V39c0-0.4-0.3-0.7-0.7-0.7
		C0.3,38.3,0,38.6,0,39v1.3c0,1.1,0.9,2.1,2.1,2.1h3.8c0.7,0,1.3-0.4,1.7-0.9c0.4,0.4,0.9,0.7,1.5,0.8c2.6,0.7,7.4,1.7,13.2,1.7
		c4.6,0,9.7-0.6,14.8-2.6c0.4-0.1,0.6-0.6,0.4-0.9C37.4,40.1,37,39.9,36.6,40z"/>
</g>
</svg>
