<svg xmlns="http://www.w3.org/2000/svg" display="none">

    <symbol id="phone" viewBox="0 0 24 24">
        <path d="M13,1a1,1,0,0,1,1-1A10.011,10.011,0,0,1,24,10a1,1,0,0,1-2,0,8.009,8.009,0,0,0-8-8A1,1,0,0,1,13,1Zm1,5a4,4,0,0,1,4,4,1,1,0,0,0,2,0,6.006,6.006,0,0,0-6-6,1,1,0,0,0,0,2Zm9.093,10.739a3.1,3.1,0,0,1,0,4.378l-.91,1.049c-8.19,7.841-28.12-12.084-20.4-20.3l1.15-1A3.081,3.081,0,0,1,7.26.906c.031.031,1.884,2.438,1.884,2.438a3.1,3.1,0,0,1-.007,4.282L7.979,9.082a12.781,12.781,0,0,0,6.931,6.945l1.465-1.165a3.1,3.1,0,0,1,4.281-.006S23.062,16.708,23.093,16.739Zm-1.376,1.454s-2.393-1.841-2.424-1.872a1.1,1.1,0,0,0-1.549,0c-.027.028-2.044,1.635-2.044,1.635a1,1,0,0,1-.979.152A15.009,15.009,0,0,1,5.9,9.3a1,1,0,0,1,.145-1S7.652,6.282,7.679,6.256a1.1,1.1,0,0,0,0-1.549c-.031-.03-1.872-2.425-1.872-2.425a1.1,1.1,0,0,0-1.51.039l-1.15,1C-2.495,10.105,14.776,26.418,20.721,20.8l.911-1.05A1.121,1.121,0,0,0,21.717,18.193Z"/>
    </symbol>

    <symbol id="phone2" viewBox="0 0 480.6 480.6">
        <g>
            <g>
                <path class="st0" d="M365.4,317.9c-15.7-15.5-35.3-15.5-50.9,0c-11.9,11.8-23.8,23.6-35.5,35.6c-3.2,3.3-5.9,4-9.8,1.8
			c-7.7-4.2-15.9-7.6-23.3-12.2c-34.5-21.7-63.4-49.6-89-81c-12.7-15.6-24-32.3-31.9-51.1c-1.6-3.8-1.3-6.3,1.8-9.4
			c11.9-11.5,23.5-23.3,35.2-35.1c16.3-16.4,16.3-35.6-0.1-52.1c-9.3-9.4-18.6-18.6-27.9-28c-9.6-9.6-19.1-19.3-28.8-28.8
			c-15.7-15.3-35.3-15.3-50.9,0.1c-12,11.8-23.5,23.9-35.7,35.5C7.3,103.9,1.6,117,0.4,132.3c-1.9,24.9,4.2,48.4,12.8,71.3
			c17.6,47.4,44.4,89.5,76.9,128.1c43.9,52.2,96.3,93.5,157.6,123.3c27.6,13.4,56.2,23.7,87.3,25.4c21.4,1.2,40-4.2,54.9-20.9
			c10.2-11.4,21.7-21.8,32.5-32.7c16-16.2,16.1-35.8,0.2-51.8C403.6,355.9,384.5,336.9,365.4,317.9z"/>
                <path class="st0" d="M346.3,238.2l36.9-6.3c-5.8-33.9-21.8-64.6-46.1-89c-25.7-25.7-58.2-41.9-94-46.9l-5.2,37.1
			c27.7,3.9,52.9,16.4,72.8,36.3C329.5,188.2,341.8,212,346.3,238.2z"/>
                <path class="st0" d="M404,77.8C361.4,35.2,307.5,8.3,248,0l-5.2,37.1c51.4,7.2,98,30.5,134.8,67.2c34.9,34.9,57.8,79,66.1,127.5
			l36.9-6.3C470.9,169.3,444.4,118.3,404,77.8z"/>
            </g>
        </g>
    </symbol>

    <symbol id="mail" viewBox="0 0 330 250">
        <g>
            <path d="M173.9,137.1c-2.6,1.9-5.8,2.9-8.9,2.9c-3.1,0-6.2-1-8.9-2.9L30,44.6l-30-22L0,235
		c0,8.3,6.7,15,15,15l300,0c8.3,0,15-6.7,15-15V22.6l-30,22L173.9,137.1z"/>
            <polygon points="165,106.4 310.1,0 19.9,0 	"/>
        </g>
    </symbol>

    <symbol id="email" viewBox="0 0 24 24">
        <path d="M19,1H5A5.006,5.006,0,0,0,0,6V18a5.006,5.006,0,0,0,5,5H19a5.006,5.006,0,0,0,5-5V6A5.006,5.006,0,0,0,19,1ZM5,3H19a3,3,0,0,1,2.78,1.887l-7.658,7.659a3.007,3.007,0,0,1-4.244,0L2.22,4.887A3,3,0,0,1,5,3ZM19,21H5a3,3,0,0,1-3-3V7.5L8.464,13.96a5.007,5.007,0,0,0,7.072,0L22,7.5V18A3,3,0,0,1,19,21Z"/>
    </symbol>

    <symbol id="arrow-right" viewBox="0 0 288.4 480.6">
        <g>
            <path d="M0,28.5L31.5,0l256.8,240.3L31.5,480.6L0,452.1l225.3-211.8L0,28.5z"/>
        </g>
    </symbol>

    <symbol id="arrow-left" viewBox="0 0 288.4 480.6">
        <g>
            <path d="M63.1,240.3l225.3,211.8l-31.5,28.5L0,240.3L256.8,0l31.5,28.5L63.1,240.3z"/>
        </g>
    </symbol>

    <symbol id="arrow-top" viewBox="0 0 480.6 288.4">
        <g>
            <path d="M28.5,288.4L0,256.8L240.3,0l240.3,256.8l-28.5,31.5L240.3,63.1L28.5,288.4z"/>
        </g>
    </symbol>

    <symbol id="arrow-bottom" viewBox="0 0 480.6 288.4">
        <g>
            <path d="M240.3,225.3L452.1,0l28.5,31.5L240.3,288.4L0,31.5L28.5,0L240.3,225.3z"/>
        </g>
    </symbol>

    <symbol id="search" viewBox="0 0 512 512">
        <path d="M505.7,475.6L378.4,348.2c74.7-91.4,61.2-226-30.2-300.7s-226-61.2-300.7,30.2s-61.2,226,30.2,300.7
	c78.7,64.3,191.8,64.3,270.5,0l127.3,127.3c8.5,8.2,22,8,30.2-0.5C513.7,497,513.7,483.9,505.7,475.6z M213.3,384
	c-94.3,0-170.7-76.4-170.7-170.7S119.1,42.7,213.3,42.7S384,119.1,384,213.3C383.9,307.5,307.5,383.9,213.3,384z"/>
    </symbol>

    <symbol id="marker" viewBox="0 0 24 24">
        <path d="M12,6a4,4,0,1,0,4,4A4,4,0,0,0,12,6Zm0,6a2,2,0,1,1,2-2A2,2,0,0,1,12,12Z"/>
        <path d="M12,24a5.271,5.271,0,0,1-4.311-2.2c-3.811-5.257-5.744-9.209-5.744-11.747a10.055,10.055,0,0,1,20.11,0c0,2.538-1.933,6.49-5.744,11.747A5.271,5.271,0,0,1,12,24ZM12,2.181a7.883,7.883,0,0,0-7.874,7.874c0,2.01,1.893,5.727,5.329,10.466a3.145,3.145,0,0,0,5.09,0c3.436-4.739,5.329-8.456,5.329-10.466A7.883,7.883,0,0,0,12,2.181Z"/>
    </symbol>

    <symbol id="location" viewBox="0 0 321 481.5">
        <g>
            <path d="M310.6,216.6L196.5,459.2c-6.6,13.8-21,22.3-36.1,22.3c-15,0-29.5-8.5-35.7-22.3L10.3,216.6
		C2.2,199.4,0,179.6,0,160.5C0,71.8,71.8,0,160.5,0S321,71.8,321,160.5C321,179.6,318.8,199.4,310.6,216.6z M160.5,80.2
		c-44.2,0-80.2,36-80.2,80.2s36.1,80.2,80.2,80.2s80.2-36,80.2-80.2S204.7,80.2,160.5,80.2z"/>
        </g>
    </symbol>
</svg>