<?xml version="1.0" encoding="utf-8"?>
<!-- Generator: Adobe Illustrator 23.1.0, SVG Export Plug-In . SVG Version: 6.00 Build 0)  -->
<svg version="1.1" id="Слой_1" xmlns="http://www.w3.org/2000/svg" xmlns:xlink="http://www.w3.org/1999/xlink" x="0px" y="0px"
	 viewBox="0 0 512 512" style="enable-background:new 0 0 512 512;" xml:space="preserve">
<style type="text/css">
	.st0{fill:#0D90D0;stroke:#000000;stroke-miterlimit:10;}
	.st1{stroke:#000000;stroke-miterlimit:10;}
	.st2{stroke:#000000;stroke-width:3;stroke-miterlimit:10;}
</style>
<g id="Van-4">
	<path d="M479.6,204.3l-83.9-83.9C385.2,109.9,371,104,356.1,104H40c-13.3,0-24,10.7-24,24v192c0,22.1,17.9,40,40,40h8.6
		c4.4,30.6,32.7,51.8,63.3,47.4c24.6-3.5,43.9-22.8,47.4-47.4h161.3c4.4,30.6,32.7,51.8,63.3,47.4c24.6-3.5,43.9-22.8,47.4-47.4H472
		c13.3,0,24-10.7,24-24v-92.1C496,229,490.1,214.8,479.6,204.3L479.6,204.3z M468.6,216H320v-64h84.7l63.6,63.6
		C468.4,215.7,468.5,215.9,468.6,216z M304,216H64v-64h240V216z M32,320v-56h24v-16H32V128c0-4.4,3.6-8,8-8h316.1
		c10.6,0,20.8,4.2,28.3,11.7l4.3,4.3H64c-8.8,0-16,7.2-16,16v64c0,8.8,7.2,16,16,16h240v112H175.4c-4.4-30.6-32.7-51.8-63.3-47.4
		c-24.6,3.5-43.9,22.8-47.4,47.4H56C42.7,344,32,333.3,32,320z M120,392c-22.1,0-40-17.9-40-40s17.9-40,40-40s40,17.9,40,40
		S142.1,392,120,392z M392,392c-22.1,0-40-17.9-40-40s17.9-40,40-40s40,17.9,40,40S414.1,392,392,392z M472,344h-24.6
		c-4.4-30.6-32.7-51.8-63.3-47.4c-24.6,3.5-43.9,22.8-47.4,47.4H320V232h158c1.3,3.8,1.9,7.8,2,11.9v4.1h-24c-13.3,0-24,10.7-24,24
		s10.7,24,24,24h24v16h-24v16h24v8C480,340.4,476.4,344,472,344z M480,264v16h-24c-4.4,0-8-3.6-8-8s3.6-8,8-8H480z"/>
	<path d="M336,248h32v16h-32V248z"/>
	<path d="M112,344h16v16h-16V344z"/>
	<path d="M384,344h16v16h-16V344z"/>
</g>
<path class="st0" d="M311,347.4H51.1c-14.3,0-25.9-11.6-25.9-25.9V136.9c0-14.3,11.6-25.9,25.9-25.9H311V347.4z"/>
<rect x="219.8" y="160.2" class="st1" width="6.3" height="137.5"/>
<rect x="192.1" y="160.2" class="st1" width="61.8" height="6.3"/>
<rect x="192.1" y="291.4" class="st1" width="61.8" height="6.3"/>
<g>
	<path class="st2" d="M96.5,185.9v36h41.6v-36h11.2V272h-11.2v-40.4H96.5V272H85.4v-86.1H96.5z"/>
</g>
</svg>
