<?xml version="1.0" encoding="utf-8"?>
<!-- Generator: Adobe Illustrator 23.1.0, SVG Export Plug-In . SVG Version: 6.00 Build 0)  -->
<svg version="1.1" id="Режим_изоляции"
	 xmlns="http://www.w3.org/2000/svg" xmlns:xlink="http://www.w3.org/1999/xlink" x="0px" y="0px" viewBox="0 0 48 41.1"
	 style="enable-background:new 0 0 48 41.1;" xml:space="preserve">
<style type="text/css">
	.st0{fill:#0D90D0;}
</style>
<g>
	<path class="st0" d="M13.5,37.3c-2.1,0.5-4.3,1.1-6.3,1.9c0.3-2.3,0.7-4.7,1.2-7c0.1-0.3,0-0.5-0.2-0.7c-1.8-1.6-3.8-3.2-5.9-4.6
		c1.3-0.5,2.7-1,4.1-1.4c0.4-0.1,0.6-0.5,0.5-0.9c-0.1-0.4-0.5-0.6-0.9-0.5c-1.8,0.6-3.7,1.2-5.5,2C0.2,26.2,0,26.4,0,26.7
		c0,0.3,0.1,0.5,0.3,0.7c2.3,1.5,4.5,3.2,6.5,4.9c-0.6,2.6-1,5.3-1.2,8c0,0.3,0.1,0.5,0.3,0.7c0.1,0.1,0.3,0.1,0.4,0.1
		c0.1,0,0.2,0,0.3-0.1c2.3-1,4.8-1.7,7.2-2.3c0.4-0.1,0.6-0.5,0.5-0.9C14.3,37.5,13.9,37.2,13.5,37.3z"/>
	<path class="st0" d="M40.9,35.1c-0.4,0.1-0.7,0.4-0.6,0.8c0.2,1.1,0.3,2.2,0.5,3.3c-7.4-2.9-15.5-3.8-23.4-2.7
		c-0.4,0.1-0.7,0.4-0.6,0.8c0.1,0.4,0.4,0.7,0.8,0.6c8-1.1,16.2-0.1,23.7,3c0.1,0,0.2,0.1,0.3,0.1c0.2,0,0.3,0,0.4-0.1
		c0.2-0.2,0.3-0.4,0.3-0.7c-0.1-1.5-0.3-3.1-0.6-4.6C41.7,35.3,41.3,35,40.9,35.1z"/>
	<path class="st0" d="M47.6,26.1c-1.8-0.7-3.6-1.4-5.5-2c-0.4-0.1-0.8,0.1-0.9,0.5c-0.1,0.4,0.1,0.8,0.5,0.9
		c1.4,0.4,2.7,0.9,4.1,1.4c-2.1,1.4-4,2.9-5.9,4.6c-0.3,0.3-0.3,0.7-0.1,1c0.1,0.2,0.3,0.2,0.5,0.2c0.2,0,0.3-0.1,0.5-0.2
		c2.1-1.9,4.4-3.6,6.9-5.2c0.2-0.1,0.4-0.4,0.3-0.7C48,26.4,47.8,26.2,47.6,26.1z"/>
	<path class="st0" d="M8.9,13.5c0.2,0.3,0.2,0.7,0,0.9c-0.2,0.3-0.2,0.8,0.2,1c0.3,0.2,0.8,0.2,1-0.2c0.5-0.8,0.6-1.8,0.1-2.5
		l-0.5-0.9c-0.1-0.2-0.2-0.5-0.1-0.8c0.1-0.3,0.3-0.4,0.6-0.5l1-0.2c1.2-0.3,1.9-1.4,1.7-2.6l-0.2-1c0-0.3,0-0.5,0.2-0.7
		c0.2-0.2,0.5-0.3,0.7-0.2l1,0.2c1.2,0.2,2.3-0.6,2.6-1.7l0.2-1C17.6,3,17.8,2.7,18,2.6c0.3-0.1,0.5-0.1,0.8,0.1l0.9,0.5
		c1,0.6,2.4,0.4,3.1-0.6l0.6-0.8c0.3-0.4,1-0.4,1.4,0l0.6,0.8c0.7,1,2,1.2,3.1,0.6l0.9-0.5c0.2-0.1,0.5-0.2,0.8-0.1
		c0.3,0.1,0.4,0.3,0.5,0.6l0.2,1C31,5.4,32.1,6.1,33.3,6l1-0.2c0.3,0,0.5,0,0.7,0.2c0.2,0.2,0.3,0.5,0.2,0.7l-0.2,1
		c-0.2,1.2,0.6,2.3,1.7,2.6l1,0.2c0.3,0.1,0.5,0.2,0.6,0.5c0.1,0.3,0.1,0.5-0.1,0.8l-0.5,0.9c-0.6,1-0.4,2.4,0.6,3.1l0.8,0.6
		c0.2,0.2,0.3,0.4,0.3,0.7c0,0.3-0.1,0.5-0.3,0.7l-0.8,0.6c-1,0.7-1.2,2-0.6,3.1l0.5,0.9c0.1,0.2,0.2,0.5,0.1,0.8
		c-0.1,0.3-0.3,0.4-0.6,0.5l-1,0.2c-1.2,0.3-1.9,1.4-1.7,2.6l0.2,1c0.1,0.4-0.2,0.8-0.5,0.9c-0.4,0.2-0.5,0.6-0.4,1
		c0.1,0.3,0.4,0.4,0.7,0.4c0.1,0,0.2,0,0.3-0.1c1-0.4,1.5-1.4,1.4-2.5l-0.2-1c-0.1-0.4,0.2-0.8,0.6-0.9l1-0.2
		c0.7-0.2,1.3-0.7,1.6-1.4c0.3-0.7,0.2-1.4-0.2-2.1l-0.5-0.9c-0.2-0.4-0.1-0.9,0.2-1.1l0.8-0.6c0.6-0.4,0.9-1.1,0.9-1.9
		c0-0.7-0.3-1.4-0.9-1.9l-0.8-0.6c-0.4-0.3-0.5-0.7-0.2-1.1l0.5-0.9c0.4-0.6,0.4-1.4,0.2-2.1c-0.3-0.7-0.9-1.2-1.6-1.4l-1-0.2
		c-0.4-0.1-0.7-0.5-0.6-0.9l0.2-1c0.1-0.7-0.1-1.5-0.6-2c-0.5-0.5-1.2-0.8-2-0.6l-1,0.2c-0.4,0.1-0.8-0.2-0.9-0.6l-0.2-1
		c-0.2-0.7-0.7-1.3-1.4-1.6c-0.7-0.3-1.4-0.2-2.1,0.2L27.6,2c-0.4,0.2-0.9,0.1-1.1-0.2l-0.6-0.8C25.4,0.3,24.7,0,24,0
		c-0.7,0-1.4,0.3-1.9,0.9l-0.6,0.8c-0.3,0.4-0.7,0.5-1.1,0.2l-0.9-0.5c-0.6-0.4-1.4-0.4-2.1-0.2c-0.7,0.3-1.2,0.9-1.4,1.6l-0.2,1
		c-0.1,0.4-0.5,0.7-0.9,0.6l-1-0.2c-0.7-0.1-1.5,0.1-2,0.6c-0.5,0.5-0.8,1.2-0.6,2l0.2,1c0.1,0.4-0.2,0.8-0.6,0.9l-1,0.2
		c-0.7,0.2-1.3,0.7-1.6,1.4C7.9,11.2,8,12,8.4,12.6L8.9,13.5z"/>
	<path class="st0" d="M19.5,32.7l0.9-0.5c0.4-0.2,0.9-0.1,1.1,0.2l0.6,0.8c0.4,0.6,1.1,0.9,1.9,0.9c0.7,0,1.4-0.3,1.9-0.9l0.6-0.8
		c0.3-0.4,0.7-0.5,1.1-0.2l0.9,0.5c0.6,0.4,1.4,0.4,2.1,0.2c0.7-0.3,1.2-0.9,1.4-1.6l0.2-1c0.1-0.4-0.1-0.8-0.5-0.9
		c-0.4-0.1-0.8,0.1-0.9,0.5l-0.2,1c-0.1,0.3-0.2,0.5-0.5,0.6c-0.3,0.1-0.5,0.1-0.8-0.1l-0.9-0.5c-1-0.6-2.4-0.4-3.1,0.6l-0.6,0.8
		c-0.3,0.4-1,0.4-1.4,0l-0.6-0.8c-0.7-1-2-1.2-3.1-0.6l-0.9,0.5c-0.2,0.1-0.5,0.2-0.8,0.1c-0.3-0.1-0.4-0.3-0.5-0.6l-0.2-1
		c-0.3-1.2-1.4-1.9-2.6-1.7l-1,0.2c-0.3,0-0.5,0-0.7-0.2c-0.2-0.2-0.3-0.5-0.2-0.7l0.2-1c0.2-1.2-0.6-2.3-1.7-2.6l-1-0.2
		c-0.3-0.1-0.5-0.2-0.6-0.5c-0.1-0.3-0.1-0.5,0.1-0.8l0.5-0.9c0.6-1,0.4-2.4-0.6-3.1l-0.8-0.6c-0.1,0-0.1-0.1-0.1-0.1
		c-0.3-0.3-0.7-0.3-1-0.1c-0.3,0.3-0.3,0.7-0.1,1c0.1,0.1,0.2,0.2,0.4,0.3l0.8,0.6c0.4,0.3,0.5,0.7,0.2,1.1l-0.5,0.9
		c-0.4,0.6-0.4,1.4-0.2,2.1c0.3,0.7,0.9,1.2,1.6,1.4l1,0.2c0.4,0.1,0.7,0.5,0.6,0.9l-0.2,1c-0.1,0.7,0.1,1.5,0.6,2
		c0.5,0.5,1.2,0.8,2,0.6l1-0.2c0.4-0.1,0.8,0.2,0.9,0.6l0.2,1c0.2,0.7,0.7,1.3,1.4,1.6C18.2,33.1,18.9,33.1,19.5,32.7z"/>
	<path class="st0" d="M30.9,11.3c0.3,0.3,0.7,0.3,1,0.1c0.3-0.3,0.3-0.7,0.1-1c-2-2.4-4.9-3.7-8-3.7c-5.7,0-10.4,4.7-10.4,10.4
		c0,5.7,4.7,10.4,10.4,10.4c5.7,0,10.4-4.7,10.4-10.4c0-1.1-0.2-2.1-0.5-3.1c-0.1-0.4-0.5-0.6-0.9-0.5c-0.4,0.1-0.6,0.5-0.5,0.9
		c0.3,0.9,0.4,1.8,0.4,2.7c0,4.9-4,9-9,9c-4.9,0-9-4-9-9c0-4.9,4-9,9-9C26.7,8.1,29.2,9.3,30.9,11.3z"/>
	<path class="st0" d="M24,12c0.4,0,0.7-0.3,0.7-0.7c0-0.4-0.3-0.7-0.7-0.7c-3.6,0-6.5,2.9-6.5,6.5c0,1.8,0.7,3.4,1.9,4.7
		c0.1,0.1,0.3,0.2,0.5,0.2c0.2,0,0.4-0.1,0.5-0.2c0.3-0.3,0.3-0.7,0-1c-1-1-1.5-2.3-1.5-3.6C18.9,14.3,21.2,12,24,12z"/>
</g>
</svg>
